<?xml version="1.0" encoding="UTF-8" standalone="no"?> <svg width="64" height="64" viewBox="0 0 64 64" fill="none" xmlns="http://www.w3.org/2000/svg">
<path d="M61 37H3C2.73478 37 2.48043 37.1054 2.29289 37.2929C2.10536 37.4804 2 37.7348 2 38C2 39.4445 2.28452 40.8749 2.83733 42.2095C3.39013 43.5441 4.20038 44.7567 5.22183 45.7782C7.28473 47.8411 10.0826 49 13 49H16V52C16 52.7956 16.3161 53.5587 16.8787 54.1213C17.4413 54.6839 18.2044 55 19 55H45C45.7956 55 46.5587 54.6839 47.1213 54.1213C47.6839 53.5587 48 52.7956 48 52C48 51.7348 47.8946 51.4804 47.7071 51.2929C47.5196 51.1054 47.2652 51 47 51C46.7348 51 46.4804 51.1054 46.2929 51.2929C46.1054 51.4804 46 51.7348 46 52C46 52.2652 45.8946 52.5196 45.7071 52.7071C45.5196 52.8946 45.2652 53 45 53H19C18.7348 53 18.4804 52.8946 18.2929 52.7071C18.1054 52.5196 18 52.2652 18 52V49H51C52.9298 48.9989 54.8254 48.4901 56.4964 47.5247C58.1675 46.5593 59.5551 45.1713 60.52 43.5C60.5861 43.3859 60.629 43.2598 60.6462 43.129C60.6634 42.9982 60.6545 42.8653 60.6201 42.738C60.5857 42.6107 60.5265 42.4914 60.4458 42.387C60.3651 42.2827 60.2646 42.1953 60.15 42.13C59.9204 41.9996 59.6485 41.9654 59.3937 42.0347C59.139 42.104 58.9219 42.2713 58.79 42.5C58.0004 43.8676 56.865 45.0033 55.4976 45.7932C54.1302 46.583 52.5791 46.9993 51 47H13C10.7869 46.9989 8.65185 46.1825 7.00268 44.7068C5.35351 43.231 4.3059 41.1994 4.06 39H61C61.2652 39 61.5196 38.8946 61.7071 38.7071C61.8946 38.5196 62 38.2652 62 38C62 37.7348 61.8946 37.4804 61.7071 37.2929C61.5196 37.1054 61.2652 37 61 37Z" fill="black"/>
<path d="M12 41C11.7348 41 11.4804 41.1054 11.2929 41.2929C11.1054 41.4804 11 41.7348 11 42C11 42.2652 11.1054 42.5196 11.2929 42.7071C11.4804 42.8946 11.7348 43 12 43H24C24.2652 43 24.5196 42.8946 24.7071 42.7071C24.8946 42.5196 25 42.2652 25 42C25 41.7348 24.8946 41.4804 24.7071 41.2929C24.5196 41.1054 24.2652 41 24 41H12Z" fill="black"/>
<path d="M29 41C28.7348 41 28.4804 41.1054 28.2929 41.2929C28.1054 41.4804 28 41.7348 28 42C28 42.2652 28.1054 42.5196 28.2929 42.7071C28.4804 42.8946 28.7348 43 29 43H32C32.2652 43 32.5196 42.8946 32.7071 42.7071C32.8946 42.5196 33 42.2652 33 42C33 41.7348 32.8946 41.4804 32.7071 41.2929C32.5196 41.1054 32.2652 41 32 41H29Z" fill="black"/>
<path d="M37 41C36.7348 41 36.4804 41.1054 36.2929 41.2929C36.1054 41.4804 36 41.7348 36 42C36 42.2652 36.1054 42.5196 36.2929 42.7071C36.4804 42.8946 36.7348 43 37 43H51C51.2652 43 51.5196 42.8946 51.7071 42.7071C51.8946 42.5196 52 42.2652 52 42C52 41.7348 51.8946 41.4804 51.7071 41.2929C51.5196 41.1054 51.2652 41 51 41H37Z" fill="black"/>
<path d="M41 28.73C40.8854 28.7953 40.7849 28.8827 40.7042 28.987C40.6235 29.0914 40.5643 29.2107 40.5299 29.338C40.4955 29.4653 40.4866 29.5982 40.5038 29.729C40.521 29.8598 40.5639 29.9859 40.63 30.1L43.17 34.5C43.2357 34.6143 43.3232 34.7145 43.4276 34.7949C43.532 34.8753 43.6512 34.9344 43.7784 34.9687C43.9056 35.0031 44.0383 35.0121 44.169 34.9951C44.2997 34.9782 44.4258 34.9357 44.54 34.87C44.6543 34.8043 44.7545 34.7168 44.8349 34.6124C44.9153 34.5081 44.9744 34.3889 45.0087 34.2616C45.0431 34.1344 45.0521 34.0017 45.0351 33.871C45.0182 33.7403 44.9757 33.6143 44.91 33.5L42.36 29.1C42.2281 28.8713 42.0111 28.704 41.7563 28.6347C41.5015 28.5654 41.2296 28.5996 41 28.73Z" fill="black"/>
<path d="M6.79999 23C7.36993 23.5941 8.04897 24.0728 8.79999 24.41L10.72 32.07C10.4168 32.0873 10.1157 32.1308 9.81999 32.2C9.34325 31.7218 8.75321 31.3721 8.10487 31.1835C7.45654 30.9949 6.77099 30.9734 6.11213 31.1212C5.45327 31.2689 4.84253 31.581 4.33682 32.0285C3.83112 32.4759 3.44691 33.0441 3.21999 33.68C3.13351 33.9294 3.1491 34.2028 3.26336 34.4407C3.37763 34.6786 3.58131 34.8617 3.82999 34.95C3.93583 34.9884 4.0474 35.0087 4.15999 35.01C4.37682 35.0221 4.59168 34.9632 4.77209 34.8423C4.9525 34.7214 5.08866 34.5451 5.15999 34.34C5.29408 33.9561 5.54203 33.6221 5.87077 33.3827C6.19951 33.1433 6.59343 33.0098 6.99999 33C7.27961 33.0027 7.55555 33.064 7.80999 33.18L7.71999 33.25C7.56842 33.4312 7.4859 33.6603 7.48707 33.8965C7.48823 34.1328 7.57301 34.361 7.72637 34.5407C7.87973 34.7204 8.09176 34.84 8.32489 34.8783C8.55802 34.9167 8.79719 34.8712 8.99999 34.75C9.35212 34.4285 9.77879 34.1998 10.2415 34.0846C10.7041 33.9694 11.1882 33.9712 11.65 34.09H11.7C12.1517 34.2088 12.5695 34.4313 12.92 34.74C13.1023 34.9008 13.3369 34.9897 13.58 34.99C13.722 34.9898 13.8623 34.9594 13.9916 34.9008C14.1209 34.8422 14.2363 34.7567 14.33 34.65C14.5048 34.451 14.5935 34.1907 14.5766 33.9264C14.5597 33.662 14.4387 33.4152 14.24 33.24C13.8248 32.882 13.3513 32.5978 12.84 32.4L11.12 25.52C11.7595 26.4022 12.6272 27.0936 13.63 27.52L16.3 34.35C16.3725 34.5379 16.5001 34.6996 16.666 34.8138C16.832 34.928 17.0286 34.9894 17.23 34.99H18C18.2652 34.99 18.5196 34.8847 18.7071 34.6971C18.8946 34.5096 19 34.2552 19 33.99V27.17C19.6658 26.7871 20.2501 26.2775 20.72 25.67C20.81 25.67 20.91 25.67 21 25.73V31C21 31.2652 21.1054 31.5196 21.2929 31.7071C21.4804 31.8947 21.7348 32 22 32C22.2652 32 22.5196 31.8947 22.7071 31.7071C22.8946 31.5196 23 31.2652 23 31V26C23.8804 26.0013 24.7551 25.8595 25.59 25.58C26.0215 25.7728 26.4803 25.8976 26.95 25.95L23.87 33.64C23.8213 33.7621 23.7971 33.8927 23.7989 34.0241C23.8007 34.1556 23.8284 34.2854 23.8804 34.4061C23.9324 34.5269 24.0077 34.6362 24.102 34.7278C24.1963 34.8194 24.3078 34.8915 24.43 34.94C24.5478 34.9866 24.6733 35.0103 24.8 35.01C25.0003 35.0102 25.196 34.9503 25.3618 34.8379C25.5276 34.7256 25.6559 34.5661 25.73 34.38L29.22 25.65C29.9244 25.345 30.5376 24.8627 31 24.25C31.5521 24.7369 32.2639 25.0038 33 25C33.5994 24.9984 34.1845 24.8173 34.68 24.48C35.2302 24.8086 35.8591 24.982 36.5 24.982C37.1409 24.982 37.7698 24.8086 38.32 24.48C38.5867 24.6591 38.8804 24.7941 39.19 24.88L26.71 33.17C26.5874 33.2358 26.4798 33.3264 26.3943 33.4361C26.3087 33.5458 26.2469 33.6722 26.2129 33.8071C26.179 33.942 26.1735 34.0826 26.197 34.2197C26.2204 34.3569 26.2722 34.4876 26.3491 34.6036C26.426 34.7196 26.5262 34.8183 26.6433 34.8933C26.7605 34.9684 26.892 35.0181 27.0295 35.0394C27.167 35.0607 27.3075 35.0531 27.4419 35.0171C27.5763 34.981 27.7016 34.9173 27.81 34.83L32.34 31.83L32.65 32.37C32.7381 32.5226 32.865 32.6492 33.0177 32.737C33.1705 32.8248 33.3438 32.8707 33.52 32.87C33.6961 32.8682 33.8686 32.8199 34.02 32.73C34.2487 32.5981 34.416 32.3811 34.4853 32.1263C34.5546 31.8715 34.5204 31.5996 34.39 31.37L34 30.72L35.67 29.61L37 31.81C37.0625 31.9295 37.1486 32.0351 37.2529 32.1205C37.3573 32.2059 37.4779 32.2693 37.6075 32.3069C37.737 32.3445 37.8728 32.3555 38.0067 32.3392C38.1405 32.3229 38.2698 32.2798 38.3865 32.2123C38.5033 32.1448 38.6052 32.0543 38.6861 31.9464C38.767 31.8385 38.8253 31.7154 38.8574 31.5844C38.8895 31.4534 38.8947 31.3173 38.8728 31.1842C38.8509 31.0511 38.8023 30.9238 38.73 30.81L37.35 28.5L42.35 25.18L43.74 27.59C43.8057 27.7043 43.8932 27.8045 43.9976 27.8849C44.1019 27.9653 44.2211 28.0244 44.3484 28.0587C44.4756 28.0931 44.6083 28.1021 44.739 28.0851C44.8697 28.0682 44.9957 28.0257 45.11 27.96C45.2242 27.8943 45.3244 27.8068 45.4049 27.7024C45.4853 27.5981 45.5444 27.4789 45.5787 27.3516C45.6131 27.2244 45.6221 27.0917 45.6051 26.961C45.5882 26.8303 45.5457 26.7043 45.48 26.59L44 24.07L45.7 23L47 25.23C47.0625 25.3495 47.1486 25.4551 47.2529 25.5405C47.3573 25.6259 47.4779 25.6893 47.6075 25.7269C47.737 25.7645 47.8728 25.7755 48.0067 25.7592C48.1405 25.7429 48.2698 25.6997 48.3865 25.6323C48.5033 25.5648 48.6052 25.4743 48.6861 25.3664C48.767 25.2585 48.8253 25.1354 48.8574 25.0044C48.8895 24.8734 48.8947 24.7373 48.8728 24.6042C48.8509 24.4711 48.8023 24.3438 48.73 24.23L47.38 21.89C48.0446 21.5668 48.8003 21.482 49.52 21.65C49.9528 21.7528 50.3603 21.9422 50.7178 22.2069C51.0753 22.4716 51.3754 22.806 51.6 23.19L53.06 25.74C53.4701 26.4498 53.595 27.289 53.4093 28.0875C53.2236 28.886 52.7412 29.584 52.06 30.04L50.74 27.7C50.6081 27.4713 50.391 27.304 50.1363 27.2347C49.8815 27.1654 49.6096 27.1996 49.38 27.33C49.2646 27.3945 49.1631 27.4812 49.0814 27.5852C48.9997 27.6892 48.9395 27.8083 48.9041 27.9357C48.8688 28.0631 48.8591 28.1963 48.8755 28.3275C48.892 28.4587 48.9343 28.5853 49 28.7L50.32 31L46 33.1C45.7627 33.2181 45.582 33.4256 45.4977 33.6769C45.4133 33.9281 45.4321 34.2026 45.55 34.44C45.6325 34.6083 45.7606 34.7501 45.9197 34.8491C46.0788 34.9481 46.2626 35.0004 46.45 35C46.6024 35.0006 46.7529 34.9664 46.89 34.9L52.57 32.07C53.2145 31.7515 53.7867 31.304 54.2511 30.7553C54.7155 30.2065 55.0623 29.5683 55.27 28.88C55.497 28.0972 55.5415 27.2727 55.4 26.47L60.58 25.41C60.7113 25.3837 60.8362 25.3319 60.9475 25.2574C61.0587 25.1828 61.1542 25.0871 61.2285 24.9757C61.3028 24.8643 61.3544 24.7393 61.3804 24.6079C61.4064 24.4765 61.4063 24.3413 61.38 24.21C61.3537 24.0787 61.3019 23.9538 61.2273 23.8426C61.1528 23.7313 61.0571 23.6358 60.9457 23.5615C60.8342 23.4872 60.7093 23.4356 60.5779 23.4096C60.4465 23.3836 60.3113 23.3837 60.18 23.41L54.69 24.53L54.55 24.29L61.48 20.29C61.5948 20.2244 61.6954 20.1368 61.7761 20.0321C61.8567 19.9274 61.9159 19.8077 61.95 19.68C62.0126 19.4231 61.977 19.152 61.85 18.92L59.85 15.46C59.7747 15.3293 59.6708 15.2174 59.5461 15.1325C59.4215 15.0477 59.2792 14.9921 59.13 14.97C58.9818 14.9467 58.8302 14.9571 58.6865 15.0004C58.5428 15.0437 58.4107 15.1187 58.3 15.22L52.19 20.83C51.5579 20.2881 50.808 19.9011 50 19.7C49.3006 19.5368 48.5753 19.5183 47.8686 19.6455C47.1618 19.7728 46.4885 20.0431 45.89 20.44L43 22.38C43.0098 22.2535 43.0098 22.1265 43 22C43 21.2044 42.6839 20.4413 42.1213 19.8787C41.5587 19.3161 40.7956 19 40 19C39.6872 18.9994 39.3764 19.05 39.08 19.15C38.848 18.9075 38.5859 18.6958 38.3 18.52C38.6442 17.6515 39.2954 16.9398 40.13 16.52L41.45 15.86C41.5769 15.8071 41.6916 15.7287 41.7869 15.6295C41.8821 15.5303 41.9559 15.4125 42.0036 15.2835C42.0512 15.1546 42.0718 15.0171 42.0639 14.8798C42.0561 14.7426 42.02 14.6084 41.958 14.4856C41.8959 14.3629 41.8092 14.2543 41.7033 14.1666C41.5974 14.0789 41.4745 14.014 41.3424 13.9759C41.2103 13.9379 41.0717 13.9275 40.9353 13.9454C40.799 13.9633 40.6678 14.0091 40.55 14.08L39.24 14.73C37.8934 15.4068 36.8613 16.5787 36.36 18C35.8843 18.0144 35.4172 18.1304 34.99 18.34C34.9742 17.6393 34.7934 16.9521 34.4623 16.3343C34.1313 15.7165 33.6593 15.1854 33.0846 14.7841C32.5099 14.3828 31.8488 14.1226 31.1547 14.0246C30.4607 13.9266 29.7533 13.9935 29.09 14.22C28.965 14.2618 28.8496 14.3278 28.7502 14.4143C28.6509 14.5008 28.5696 14.6061 28.5111 14.7241C28.4525 14.8421 28.4179 14.9705 28.4091 15.102C28.4003 15.2334 28.4176 15.3653 28.46 15.49C28.5444 15.74 28.7242 15.9465 28.9602 16.0645C29.1962 16.1825 29.4693 16.2025 29.72 16.12C29.9725 16.041 30.2354 16.0006 30.5 16C30.8283 15.979 31.1575 16.0229 31.4689 16.1291C31.7802 16.2353 32.0676 16.4018 32.3146 16.6191C32.5616 16.8364 32.7634 17.1002 32.9085 17.3955C33.0535 17.6908 33.139 18.0117 33.16 18.34C33.181 18.6683 33.1371 18.9975 33.0309 19.3089C32.9247 19.6203 32.7582 19.9076 32.5409 20.1546C32.3236 20.4016 32.0598 20.6034 31.7645 20.7485C31.4693 20.8935 31.1483 20.979 30.82 21C30.602 21.0289 30.3997 21.1288 30.2442 21.2842C30.0888 21.4397 29.9889 21.6421 29.96 21.86C29.9111 22.2742 29.7581 22.6693 29.5153 23.0085C29.2724 23.3476 28.9477 23.6197 28.5713 23.7994C28.1949 23.9791 27.7791 24.0606 27.3627 24.0362C26.9463 24.0118 26.5429 23.8824 26.19 23.66C26.056 23.5786 25.9047 23.5298 25.7483 23.5177C25.592 23.5055 25.435 23.5303 25.29 23.59C23.8234 24.1956 22.1766 24.1956 20.71 23.59C20.485 23.4973 20.2339 23.4899 20.0038 23.569C19.7737 23.6482 19.5804 23.8085 19.46 24.02C19.0916 24.6594 18.5534 25.1845 17.9051 25.537C17.2568 25.8896 16.5236 26.0559 15.7866 26.0176C15.0496 25.9793 14.3376 25.7379 13.7293 25.32C13.121 24.9022 12.6402 24.3242 12.34 23.65C12.2626 23.4727 12.1354 23.3216 11.9739 23.2151C11.8124 23.1086 11.6235 23.0513 11.43 23.05C10.764 23.0324 10.1104 22.8661 9.51689 22.5633C8.92344 22.2605 8.40517 21.8289 7.99999 21.3C7.87712 21.1627 7.71871 21.0621 7.54225 21.0091C7.36579 20.9562 7.17814 20.953 6.99999 21C6.83522 21.032 6.66784 21.0488 6.49999 21.05C5.83695 21.05 5.20107 20.7866 4.73223 20.3178C4.26339 19.8489 3.99999 19.2131 3.99999 18.55C3.99999 17.887 4.26339 17.2511 4.73223 16.7822C5.20107 16.3134 5.83695 16.05 6.49999 16.05C6.66784 16.0513 6.83522 16.068 6.99999 16.1C7.18273 16.1412 7.37335 16.1302 7.55015 16.0683C7.72695 16.0064 7.88282 15.8962 7.99999 15.75C8.45868 15.1554 9.05799 14.6842 9.744 14.3787C10.43 14.0732 11.1812 13.9431 11.93 14C12.0608 14.0115 12.1926 13.9971 12.3179 13.9576C12.4431 13.9182 12.5594 13.8544 12.66 13.77C12.7619 13.6861 12.8462 13.5827 12.908 13.466C12.9698 13.3493 13.0079 13.2215 13.02 13.09C13.1288 11.975 13.6469 10.9398 14.4743 10.1844C15.3017 9.42905 16.3797 9.00708 17.5 9.00001C18.3312 9.00164 19.1455 9.23447 19.8519 9.67244C20.5583 10.1104 21.1289 10.7363 21.5 11.48C21.5907 11.6627 21.7351 11.8134 21.9138 11.9117C22.0926 12.01 22.2971 12.0513 22.5 12.03C23.8526 11.9252 25.2013 12.2774 26.33 13.03C26.4387 13.1118 26.5629 13.1705 26.695 13.2026C26.8272 13.2347 26.9645 13.2395 27.0986 13.2167C27.2326 13.1939 27.3607 13.1441 27.4748 13.0701C27.5889 12.9962 27.6868 12.8997 27.7624 12.7867C27.838 12.6736 27.8897 12.5464 27.9144 12.4126C27.9391 12.2789 27.9363 12.1416 27.9062 12.009C27.876 11.8763 27.8191 11.7513 27.7389 11.6414C27.6588 11.5316 27.5571 11.4392 27.44 11.37C26.13 10.4803 24.5836 10.0031 23 10V10C22.4137 9.0738 21.601 8.3123 20.6387 7.78739C19.6764 7.26248 18.5961 6.9915 17.5 7.00001C16.04 7.00982 14.6251 7.50716 13.4801 8.41305C12.335 9.31893 11.5255 10.5814 11.18 12C9.51656 12.0763 7.94709 12.793 6.79999 14H6.49999C5.30652 14.0398 4.17773 14.5521 3.36195 15.4241C2.54616 16.2961 2.11021 17.4565 2.14999 18.65C2.18978 19.8435 2.70203 20.9723 3.57408 21.7881C4.44612 22.6038 5.60652 23.0398 6.79999 23V23ZM58.8 17.59L59.67 19.11L53.61 22.61L53.51 22.44L58.8 17.59ZM33.93 21.37C34.1583 21.4634 34.4141 21.4633 34.6424 21.3698C34.8706 21.2762 35.0529 21.0967 35.15 20.87C35.2345 20.6878 35.3552 20.5246 35.5048 20.3905C35.6543 20.2564 35.8296 20.1542 36.02 20.09C36.0422 20.3359 36.1546 20.5649 36.3355 20.7329C36.5164 20.9009 36.7531 20.9961 37 21C37.1371 20.9996 37.2727 20.9709 37.3983 20.9159C37.5238 20.8608 37.6368 20.7805 37.73 20.68C37.7758 20.7395 37.8159 20.8031 37.85 20.87C37.9138 21.0072 38.008 21.1281 38.1254 21.2237C38.2427 21.3192 38.3803 21.3868 38.5276 21.4215C38.6749 21.4562 38.8282 21.4569 38.9758 21.4238C39.1235 21.3906 39.2617 21.3243 39.38 21.23C39.5546 21.0853 39.7732 21.0041 40 21C40.1721 20.9997 40.3413 21.0439 40.4914 21.1281C40.6414 21.2124 40.7672 21.334 40.8565 21.4811C40.9458 21.6282 40.9956 21.7959 41.0011 21.9679C41.0066 22.1399 40.9677 22.3104 40.888 22.463C40.8083 22.6155 40.6907 22.7449 40.5463 22.8386C40.402 22.9324 40.2359 22.9873 40.0642 22.9981C39.8924 23.0088 39.7208 22.9751 39.5659 22.9001C39.411 22.8251 39.2781 22.7114 39.18 22.57C39.0924 22.4482 38.9786 22.3477 38.8469 22.2758C38.7152 22.204 38.569 22.1627 38.4192 22.155C38.2694 22.1473 38.1198 22.1734 37.9814 22.2314C37.8431 22.2894 37.7196 22.3778 37.62 22.49C37.4784 22.6466 37.3056 22.7717 37.1127 22.8573C36.9198 22.943 36.7111 22.9872 36.5 22.9872C36.2889 22.9872 36.0802 22.943 35.8873 22.8573C35.6944 22.7717 35.5216 22.6466 35.38 22.49C35.2804 22.3778 35.1569 22.2894 35.0186 22.2314C34.8802 22.1734 34.7306 22.1473 34.5808 22.155C34.4309 22.1627 34.2848 22.204 34.1531 22.2758C34.0214 22.3477 33.9076 22.4482 33.82 22.57C33.7281 22.7025 33.6055 22.8108 33.4628 22.8856C33.32 22.9605 33.1612 22.9997 33 23C32.8532 22.9964 32.709 22.9604 32.5776 22.8947C32.4463 22.8291 32.331 22.7353 32.24 22.62C32.8947 22.3436 33.474 21.9151 33.93 21.37V21.37ZM17 27.9V30.56L16 28C16.3357 27.9969 16.6704 27.9635 17 27.9V27.9Z" fill="black"/>
<path d="M53 33.33C52.9027 33.4254 52.8259 33.5398 52.7744 33.666C52.7229 33.7922 52.6978 33.9276 52.7005 34.0639C52.7032 34.2001 52.7338 34.3344 52.7903 34.4584C52.8468 34.5825 52.9281 34.6937 53.0291 34.7851C53.1302 34.8766 53.2488 34.9465 53.3779 34.9904C53.5069 35.0344 53.6435 35.0515 53.7794 35.0407C53.9153 35.0299 54.0475 34.9915 54.168 34.9277C54.2885 34.864 54.3946 34.7763 54.48 34.67C54.6677 34.4572 54.8985 34.2867 55.1571 34.17C55.4157 34.0532 55.6962 33.9929 55.98 33.9929C56.2637 33.9929 56.5442 34.0532 56.8029 34.17C57.0615 34.2867 57.2923 34.4572 57.48 34.67C57.5735 34.7736 57.6876 34.8565 57.8151 34.9133C57.9425 34.9701 58.0805 34.9997 58.22 35C58.4678 34.9993 58.7066 34.9067 58.89 34.74C58.9898 34.6546 59.0718 34.5505 59.1314 34.4334C59.1909 34.3163 59.2268 34.1887 59.237 34.0578C59.2473 33.9268 59.2316 33.7952 59.1909 33.6703C59.1502 33.5454 59.0854 33.4298 59 33.33C58.6251 32.9175 58.1681 32.588 57.6584 32.3624C57.1486 32.1369 56.5974 32.0204 56.04 32.0204C55.4826 32.0204 54.9314 32.1369 54.4216 32.3624C53.9119 32.588 53.4549 32.9175 53.08 33.33H53Z" fill="white"/>
</svg>
