<svg xmlns="http://www.w3.org/2000/svg" viewBox="0 0 64 64" fill="white"><path d="M38.55 4.04c-8.17.57-17.41 4.43-18.33 16.92-.17 5.94-4.8 10.36-8.13 12.75-4.03 2.91-7.14 5.12-7.98 11.32C3.24 51.43 7.67 60 17.95 60c19.94 0 34.08-15.68 34.08-15.68s7.98-7.35 7.97-16.81c-.02-11.95-9.63-24.3-21.45-23.47Zm11.44 38.08-.2.2C49.66 42.46 36.25 57 17.95 57c-3.54 0-6.35-1.17-8.36-3.48-1.93-2.2-2.89-5.3-2.51-8.08.66-4.89 2.8-6.44 6.7-9.24 5.89-4.25 9.25-9.6 9.43-15.06.31-4.01 2.23-7.68 5.41-10.38C31.83 8.04 35.9 6.67 39.76 7 49.9 7.88 56.99 18.52 57 27.51c.01 7.96-6.94 14.54-7.01 14.61ZM39.58 9c-.32-.03-.65-.05-.98-.05-3.04 0-6.15 1.19-8.68 3.33-2.77 2.35-4.44 5.54-4.71 8.97C25 27.3 21.36 33.2 14.95 37.82c-3.78 2.72-5.34 3.85-5.89 7.89-.3 2.23.48 4.72 2.03 6.5 1.62 1.85 3.93 2.79 6.86 2.79 17.33 0 30.24-13.89 30.37-14.03l.3-.31c.07-.06 6.39-6.1 6.38-13.14C54.99 19.39 48.65 9.78 39.58 9ZM42 28c-2.76 0-5-2.24-5-5s2.24-5 5-5 5 2.24 5 5-2.24 5-5 5Z"/></svg>