<svg xmlns="http://www.w3.org/2000/svg" viewBox="0 0 32 32" fill="white"><path d="m29.66 4.57-4.1-2.73A5 5 0 0 0 22.79 1H9.21a5 5 0 0 0-2.77.84l-4.1 2.73A3 3 0 0 0 1 7.07V14a1 1 0 0 0 .63.93L6 16.68V28a3 3 0 0 0 3 3h14a3 3 0 0 0 3-3V16.68l4.37-1.75A1 1 0 0 0 31 14V7.07a3 3 0 0 0-1.34-2.5ZM16 8a3.5 3.5 0 0 1-3.5-3.5V3h7v1.5A3.5 3.5 0 0 1 16 8Zm13 5.32-3 1.2V11a1 1 0 0 0-2 0v17a1 1 0 0 1-1 1H9a1 1 0 0 1-1-1V11a1 1 0 0 0-2 0v3.52l-3-1.2V7.07a1 1 0 0 1 .45-.83l4.1-2.74A3 3 0 0 1 9.21 3h1.29v1.5A5.5 5.5 0 0 0 15 9.9V12a1 1 0 0 0 2 0V9.9a5.5 5.5 0 0 0 4.5-5.4V3h1.29a3 3 0 0 1 1.66.5l4.1 2.74a1 1 0 0 1 .45.83Z"/></svg>